<svg xmlns="http://www.w3.org/2000/svg" viewBox="0 0 64 64" fill="none">
  <defs>
    <linearGradient id="globeGrad" x1="0%" y1="0%" x2="100%" y2="100%">
      <stop offset="0%" stop-color="#068176" />
      <stop offset="100%" stop-color="#045a52" />
    </linearGradient>
    <linearGradient id="leafGrad" x1="0%" y1="0%" x2="100%" y2="100%">
      <stop offset="0%" stop-color="#10b981" />
      <stop offset="100%" stop-color="#059669" />
    </linearGradient>
  </defs>
  <!-- Background Badge / Circle for maximum contrast on all browser tabs and search results -->
  <rect width="64" height="64" rx="14" fill="#ffffff"/>
  <circle cx="30" cy="34" r="18" stroke="url(#globeGrad)" stroke-width="3.5" fill="none"/>
  <path d="M12 34h36" stroke="url(#globeGrad)" stroke-width="3" stroke-linecap="round"/>
  <path d="M30 16c-6 5.5-9 11.5-9 18s3 12.5 9 18" stroke="url(#globeGrad)" stroke-width="3" stroke-linecap="round"/>
  <path d="M30 16c6 5.5 9 11.5 9 18s-3 12.5-9 18" stroke="url(#globeGrad)" stroke-width="3" stroke-linecap="round"/>
  <!-- Emergent Leaf -->
  <g transform="translate(34, 10) rotate(15)">
    <path d="M0 16C0 7.163 7.163 0 16 0c0 8.837-7.163 16-16 16z" fill="url(#leafGrad)"/>
    <path d="M0 16L16 0" stroke="#ffffff" stroke-width="1.5" stroke-linecap="round" opacity="0.6"/>
  </g>
</svg>
